<svg width="653" height="589" viewBox="0 0 653 589" fill="none" xmlns="http://www.w3.org/2000/svg">
<path opacity="0.52" d="M53.2878 588.733C18.7171 510.971 -16.3474 428.465 8.22248 348.594C13.2846 331.987 21.3099 315.38 36.8667 302.727C52.4236 290.206 76.7465 282.43 98.9705 287.043C117.49 290.865 134.529 302.596 153.172 299.037C175.643 294.688 179.594 272.941 181.076 255.807C188.978 162.492 259.23 73.1317 365.041 21.9933C395.908 6.9681 433.565 -5.1575 469.124 2.2233C502.089 9.0769 525.671 31.7465 535.055 55.9977C544.438 80.2489 541.969 106.214 537.895 131.256C536.289 140.877 534.561 150.63 537.648 159.988C540.734 169.346 549.994 178.308 562.835 180.022C578.392 181.999 592.343 173.431 604.443 165.787C629.63 150.103 658.892 136.659 691.487 133.364C724.082 130.201 760.505 139.164 777.543 159.988C797.298 184.239 786.186 215.476 772.852 242.099C749.516 288.625 721.119 333.569 687.783 376.667C681.61 384.707 675.066 392.879 673.09 401.973C670.992 411.067 674.449 421.479 684.696 426.883C704.204 436.9 730.379 422.929 754.208 423.983C783.099 425.301 801.249 449.816 798.533 471.168C795.816 492.388 778.655 510.971 763.221 529.028C747.788 547.085 733.095 567.382 736.058 588.602L53.2878 588.733Z" fill="#E6E9F1"/>
</svg>
