<svg width="72" height="72" viewBox="0 0 72 72" fill="none" xmlns="http://www.w3.org/2000/svg">
<path d="M9.8472 57.586C9.6211 57.362 9.96025 57.698 9.73415 57.362C9.50805 57.026 9.28194 56.6901 8.94279 56.3541C8.15143 55.1222 7.36007 53.8902 6.68176 52.5463C4.42074 48.4026 2.95107 44.0349 2.27277 39.3312C1.36836 33.2835 2.38582 27.0119 5.2121 21.4123C7.02092 17.9405 9.39499 14.6927 12.1082 11.8929C13.4648 10.437 15.3867 8.64507 16.6303 7.74912C16.5172 7.86112 17.0825 7.41314 17.3086 7.30115C28.2746 -0.0903873 42.406 0.693563 53.485 7.07716C66.0337 14.4687 73.0428 29.9237 68.973 44.0349C66.5989 52.0984 61.3986 59.3779 54.2763 63.8576C48.1716 67.7774 41.0493 70.0172 33.8141 70.1292C31.44 70.2412 28.9529 70.0172 26.5788 69.7933C25.3352 69.6813 24.883 71.4731 26.0135 71.5851C34.4924 72.7051 42.9712 71.5851 50.6587 67.8894C58.007 64.4176 63.7726 59.0419 67.6164 51.8744C71.5732 44.5948 73.0428 36.3073 71.234 28.2438C69.6513 21.5243 66.0337 14.9167 60.9464 10.213C49.7543 -0.314373 32.5705 -3.22619 18.8913 3.94136C14.2562 6.40521 10.5255 10.213 7.36007 14.3567C3.06412 20.1803 0.237844 27.0119 0.0117417 34.1795C-0.214361 42.6909 2.83802 51.5384 8.03838 58.37C8.15143 58.5939 8.26448 58.7059 8.49058 58.9299C9.28194 59.9379 10.6386 58.482 9.8472 57.586Z" fill="white"/>
<path d="M1.8206 43.811C6.11655 44.259 10.5255 41.6832 13.3518 38.7713C14.9345 37.0914 16.2912 35.1876 17.3086 33.1717C18.6652 30.7078 19.3435 28.132 20.361 25.5562C21.8307 21.7484 24.8831 19.0606 28.8398 17.9406C31.7792 17.0447 35.0577 17.0447 38.1101 17.3807C39.4667 17.4927 40.8233 17.7167 42.0668 18.3886C44.1018 19.3966 45.7975 20.8525 46.7019 22.9803C47.4933 24.6602 48.8499 24.8842 50.4326 24.9962C52.1284 25.1082 53.8242 25.1082 55.5199 25.2202C56.4244 25.2202 58.6854 24.9962 59.4767 25.6682C60.3811 26.5641 59.3637 29.3639 59.0245 30.3719C58.5723 31.9398 57.781 33.5077 56.7635 34.6276C53.2589 38.4354 47.7194 36.9795 43.5365 35.0756C42.406 34.5156 41.3885 36.1955 42.5191 36.7555C46.5889 38.6593 51.7893 40.2272 55.9722 37.7634C58.7984 36.0835 60.3811 32.9477 61.1725 29.9239C61.5117 28.58 62.0769 26.7881 61.6247 25.5562C61.0595 23.8763 59.4767 23.5403 57.894 23.5403C56.0852 23.4283 54.1633 23.4283 52.3545 23.3163C51.5632 23.3163 50.8848 23.2043 50.0935 23.2043C49.076 23.0923 48.7369 22.6444 48.2847 21.6364C45.6845 16.3727 39.6928 15.2528 34.3794 15.3648C30.6487 15.4768 26.8049 16.2607 23.7525 18.3886C22.0568 19.6205 20.5871 21.1884 19.5696 23.0923C18.213 25.6682 17.6478 28.58 16.2912 31.2678C13.804 36.4195 8.37757 42.6911 1.8206 41.9071C0.690089 41.7952 0.690089 43.699 1.8206 43.811Z" fill="white"/>
<path d="M24.5438 22.8683C23.0742 26.4521 21.9436 30.1479 21.1523 33.8436C20.8131 35.1875 20.587 36.6435 20.474 37.9874C20.3609 39.2193 20.0218 40.7872 20.2479 42.0191C20.587 43.587 22.3958 44.8189 23.6394 45.6029C25.5613 46.9468 27.8223 47.8428 30.1964 48.1787C31.4399 48.4027 32.7966 48.5147 34.1532 48.4027C35.5098 48.4027 37.0925 48.2907 38.223 47.7308C41.8407 46.0509 42.1798 41.6831 41.2754 38.3234C40.484 35.1875 38.223 32.3877 35.962 30.1479C35.0576 29.2519 34.1532 28.356 33.5879 27.1241C32.9096 25.6681 32.7966 24.1002 32.7966 22.5323C32.7966 21.3004 30.8747 21.3004 30.8747 22.5323C30.8747 24.7722 31.2138 27.1241 32.4574 29.0279C33.814 31.0438 35.8489 32.6117 37.2056 34.6276C38.6752 36.8674 39.9188 39.1073 39.8057 41.9071C39.8057 43.363 39.2405 44.8189 38.11 45.7149C36.5272 46.9468 34.0401 46.7228 32.2313 46.6108C29.9703 46.4988 27.8223 45.8269 25.7874 44.707C24.6569 44.035 23.3003 43.251 22.5089 42.2431C21.8306 41.3472 22.1697 39.4433 22.3958 38.4353C22.5089 37.0914 22.848 35.7475 23.0742 34.4036C23.8655 30.7078 24.996 27.0121 26.4657 23.4283C26.9179 22.1964 24.996 21.7484 24.5438 22.8683Z" fill="white"/>
<path d="M31.7792 54.2262C34.1533 53.8903 36.5274 53.8903 38.7884 54.1143C40.9364 54.2262 42.9713 54.5622 45.0062 55.2342C46.4759 55.6822 47.7195 56.1301 49.1891 55.9061C52.4676 55.5702 55.4069 53.6663 57.8941 51.6504C60.1551 49.6345 62.3031 47.2827 63.4336 44.3709C63.8858 43.2509 61.9639 42.691 61.6248 43.8109C60.6073 46.6107 58.3463 48.9626 56.0852 50.7545C53.8242 52.5464 50.7718 54.3382 47.8325 54.0023C46.2498 53.7783 44.7801 52.9943 43.3105 52.6583C41.6147 52.3224 39.9189 52.0984 38.2232 51.9864C36.1882 51.8744 34.0403 51.8744 31.8923 52.2104C30.5357 52.5464 30.5357 54.4502 31.7792 54.2262Z" fill="white"/>
<path d="M33.5879 47.5067C33.3618 49.1866 33.1357 50.8665 33.0226 52.4344C33.0226 52.6584 32.9096 52.8824 32.9096 53.1064C32.7965 53.5543 33.3618 54.1143 33.927 54.1143C34.4923 54.1143 34.8314 53.6663 34.9445 53.1064C35.1706 51.4265 35.3967 49.7466 35.5097 48.1787C35.5097 47.9547 35.6228 47.7307 35.6228 47.5067C35.7359 47.0587 35.1706 46.4988 34.6053 46.4988C33.927 46.4988 33.7009 46.9467 33.5879 47.5067Z" fill="white"/>
<path d="M40.7103 41.907C43.1974 41.683 45.7976 41.571 48.2847 41.683C49.9805 41.795 51.5632 42.131 53.1459 42.6909C54.3895 43.1389 55.7461 42.243 55.7461 40.8991C55.7461 39.1072 53.9373 37.8752 52.4676 37.2033C51.3371 36.6433 50.4327 38.3232 51.4502 38.8832C52.2415 39.2192 52.9198 39.6671 53.4851 40.2271C53.4851 40.2271 53.5981 40.3391 53.7112 40.5631C53.8242 40.6751 53.5981 40.3391 53.7112 40.4511C53.7112 40.5631 53.8242 40.899 53.8242 41.011L53.9373 40.8991C53.9373 40.8991 53.7112 40.8991 53.8242 40.8991C54.0503 40.8991 53.7112 40.8991 53.7112 40.8991H53.5981C53.5981 40.7871 54.1634 41.123 53.8242 40.8991C53.7112 40.8991 53.5981 40.7871 53.4851 40.7871C53.1459 40.6751 52.8068 40.5631 52.4676 40.4511C49.5283 39.6671 46.2498 39.6671 43.1974 39.8911C42.4061 39.8911 41.6147 40.0031 40.8234 40.1151C40.2581 40.1151 39.9189 40.5631 39.8059 41.123C39.6928 41.347 40.145 41.907 40.7103 41.907Z" fill="white"/>
<path d="M60.2682 29.588C60.1551 29.588 60.0421 29.476 59.929 29.476C55.7461 28.0201 54.6156 24.2123 54.6156 24.2123C54.6156 24.2123 59.3638 23.6523 60.2682 25.1082C61.1726 26.4522 60.1551 29.588 60.1551 29.588" fill="white"/>
<path d="M60.2682 29.588C60.1551 29.588 60.0421 29.476 59.929 29.476C55.7461 28.0201 54.6156 24.2123 54.6156 24.2123C54.6156 24.2123 59.3638 23.6523 60.2682 25.1082C61.1726 26.4522 60.1551 29.588 60.1551 29.588" stroke="white" stroke-width="0.3402" stroke-miterlimit="10"/>
<path d="M20.7002 57.586C26.4658 60.4978 33.8141 61.7297 40.0319 59.9378C41.2755 59.6019 40.7102 57.81 39.4667 58.146C35.3968 59.2659 31.2139 58.9299 27.1441 57.922C25.2222 57.474 23.3003 56.802 21.4915 55.9061C20.5871 55.4581 19.6827 57.026 20.7002 57.586Z" fill="white"/>
<path d="M18.6651 61.7296C20.3609 62.6256 22.2827 63.2975 24.0916 63.7455C28.3875 64.9774 32.7965 65.4254 37.2055 64.9774C38.4491 64.8654 38.4491 62.9615 37.2055 63.0735C32.9096 63.5215 28.7267 63.0735 24.5438 61.9536C22.848 61.5056 21.1522 60.9457 19.5695 60.0497C18.5521 59.4897 17.6476 61.1696 18.6651 61.7296Z" fill="white"/>
<path d="M20.7001 66.4335C25.5613 68.6733 31.553 69.3453 36.6403 68.0014C37.8839 67.6654 37.3186 65.8735 36.0751 66.2095C32.7966 67.1054 29.405 66.9934 26.1266 66.3215C24.996 66.0975 23.8655 65.7615 22.8481 65.4255C22.5089 65.3135 22.1698 65.2015 21.8306 65.0896C21.6045 64.9776 21.9437 65.2015 21.7176 65.0896H21.6045C20.587 64.3056 19.5696 65.9855 20.7001 66.4335Z" fill="white"/>
<path d="M42.858 27.3482C43.42 27.3482 43.8755 26.6462 43.8755 25.7803C43.8755 24.9144 43.42 24.2124 42.858 24.2124C42.2961 24.2124 41.8406 24.9144 41.8406 25.7803C41.8406 26.6462 42.2961 27.3482 42.858 27.3482Z" fill="white"/>
<path d="M42.8582 25.7801C42.8582 25.8921 42.8582 26.0041 42.8582 26.1161C42.8582 26.1161 42.8582 26.0041 42.8582 25.7801C42.8582 26.1161 42.7451 26.2281 42.7451 26.452V26.564C42.7451 26.676 42.9713 26.34 42.8582 26.452C42.9713 26.34 42.8582 26.452 42.7451 26.452C42.8582 26.452 42.8582 26.34 42.9713 26.34H42.8582C42.9713 26.34 43.0843 26.34 43.0843 26.34C42.9712 26.34 42.9713 26.34 42.8582 26.34C42.9713 26.34 43.0843 26.34 43.0843 26.34H42.9713C43.0843 26.34 43.0843 26.452 43.1974 26.452L43.0843 26.34C43.0843 26.34 43.3104 26.564 43.1974 26.452C43.1974 26.452 43.1974 26.452 43.0843 26.34C42.9712 26.2281 43.1974 26.452 43.1974 26.452C43.1974 26.452 43.1974 26.34 43.0843 26.34C42.8582 26.2281 42.8582 26.1161 42.8582 25.7801C42.8582 26.0041 42.8582 26.1161 42.8582 26.1161C42.8582 25.8921 42.8582 25.6681 42.8582 25.3321C42.8582 25.5561 42.8582 25.5561 42.8582 25.7801C42.8582 25.4441 42.8582 25.3321 42.9713 25.1081V24.9961C42.9713 24.8841 42.7452 25.2201 42.8582 25.1081C42.7452 25.2201 42.8582 25.1081 42.9713 25.1081C42.8582 25.1081 42.8582 25.2201 42.7451 25.2201H42.8582C42.7452 25.2201 42.6321 25.2201 42.6321 25.2201C42.7451 25.2201 42.7452 25.2201 42.8582 25.2201C42.7452 25.2201 42.6321 25.2201 42.6321 25.2201H42.7451C42.6321 25.2201 42.6321 25.1081 42.519 25.1081L42.6321 25.2201C42.6321 25.2201 42.406 24.9961 42.519 25.1081C42.519 25.1081 42.519 25.1081 42.6321 25.2201C42.7451 25.3321 42.519 25.1081 42.519 25.1081C42.519 25.1081 42.519 25.2201 42.6321 25.2201C42.8582 25.3321 42.8582 25.4441 42.8582 25.7801C42.8582 25.5561 42.8582 25.4441 42.8582 25.4441C42.8582 25.5561 42.8582 25.6681 42.8582 25.7801C42.8582 26.2281 43.3104 26.788 43.8757 26.788C44.4409 26.788 44.8931 26.34 44.8931 25.7801C44.8931 24.8841 44.554 23.8762 43.7626 23.4282C43.3104 23.2042 42.7452 23.2042 42.2929 23.3162C41.8407 23.5402 41.5016 23.7642 41.3885 24.2122C40.9363 24.9961 40.9363 26.0041 41.1624 26.9C41.3885 27.348 41.6146 27.796 42.0668 28.0199C42.406 28.2439 42.9713 28.3559 43.4235 28.2439C44.4409 27.908 44.8931 26.788 44.8931 25.7801C44.8931 25.3321 44.4409 24.7721 43.8757 24.7721C43.3104 24.8841 42.8582 25.2201 42.8582 25.7801Z" fill="white"/>
<path d="M51.6761 34.6274C51.9259 34.6274 52.1283 34.4268 52.1283 34.1794C52.1283 33.932 51.9259 33.7314 51.6761 33.7314C51.4264 33.7314 51.2239 33.932 51.2239 34.1794C51.2239 34.4268 51.4264 34.6274 51.6761 34.6274Z" fill="white" stroke="white" stroke-width="0.3402" stroke-miterlimit="10"/>
<path d="M54.6155 34.6274C54.8652 34.6274 55.0677 34.4268 55.0677 34.1794C55.0677 33.932 54.8652 33.7314 54.6155 33.7314C54.3657 33.7314 54.1633 33.932 54.1633 34.1794C54.1633 34.4268 54.3657 34.6274 54.6155 34.6274Z" fill="white" stroke="white" stroke-width="0.3402" stroke-miterlimit="10"/>
<path d="M53.1459 32.8354C53.3956 32.8354 53.5981 32.6348 53.5981 32.3874C53.5981 32.14 53.3956 31.9395 53.1459 31.9395C52.8961 31.9395 52.6937 32.14 52.6937 32.3874C52.6937 32.6348 52.8961 32.8354 53.1459 32.8354Z" fill="white" stroke="white" stroke-width="0.3402" stroke-miterlimit="10"/>
</svg>
