<svg width="32" height="32" viewBox="0 0 32 32" fill="none" xmlns="http://www.w3.org/2000/svg">
<rect x="-0.5" y="0.5" width="31" height="31" rx="15.5" transform="matrix(-1 0 0 1 31 0)" fill="#D5E1FB"/>
<path fill-rule="evenodd" clip-rule="evenodd" d="M17.9598 8.70711C18.3503 8.31658 18.9835 8.31658 19.374 8.70711L19.8405 9.17366C20.2308 9.56389 20.2311 10.1965 19.8413 10.5871L15.145 15.2937C14.7555 15.684 14.7555 16.316 15.145 16.7063L19.8413 21.4129C20.2311 21.8035 20.2308 22.4361 19.8405 22.8263L19.374 23.2929C18.9835 23.6834 18.3503 23.6834 17.9598 23.2929L11.374 16.7071C10.9835 16.3166 10.9835 15.6834 11.374 15.2929L17.9598 8.70711Z" fill="#524F4E"/>
<rect x="-0.5" y="0.5" width="31" height="31" rx="15.5" transform="matrix(-1 0 0 1 31 0)" stroke="#EFF0F0"/>
</svg>
