<svg width="48" height="48" viewBox="0 0 48 48" fill="none" xmlns="http://www.w3.org/2000/svg">
<path d="M38.1601 31.4406C36.9801 24.3806 30.2001 18.6406 23.0401 18.6406C15.2601 18.6406 8.42006 24.9406 7.76006 32.7006C7.50006 35.7006 8.46006 38.5406 10.4401 40.6806C12.4001 42.8206 15.1601 44.0006 18.1601 44.0006H27.5201C30.9001 44.0006 33.8601 42.6806 35.8801 40.3006C37.9001 37.9206 38.7001 34.7606 38.1601 31.4406Z" fill="#455B88"/>
<path d="M20.5602 15.72C23.7966 15.72 26.4202 13.0964 26.4202 9.86C26.4202 6.62361 23.7966 4 20.5602 4C17.3238 4 14.7002 6.62361 14.7002 9.86C14.7002 13.0964 17.3238 15.72 20.5602 15.72Z" fill="#455B88"/>
<path d="M33.88 18.0608C36.5752 18.0608 38.76 15.8759 38.76 13.1808C38.76 10.4856 36.5752 8.30078 33.88 8.30078C31.1849 8.30078 29 10.4856 29 13.1808C29 15.8759 31.1849 18.0608 33.88 18.0608Z" fill="#455B88"/>
<path d="M41.1002 25.8605C43.2541 25.8605 45.0002 24.1145 45.0002 21.9605C45.0002 19.8066 43.2541 18.0605 41.1002 18.0605C38.9463 18.0605 37.2002 19.8066 37.2002 21.9605C37.2002 24.1145 38.9463 25.8605 41.1002 25.8605Z" fill="#455B88"/>
<path d="M7.88 21.9592C10.5751 21.9592 12.76 19.7744 12.76 17.0792C12.76 14.3841 10.5751 12.1992 7.88 12.1992C5.18485 12.1992 3 14.3841 3 17.0792C3 19.7744 5.18485 21.9592 7.88 21.9592Z" fill="#455B88"/>
</svg>
