<svg width="48" height="36" viewBox="0 0 48 36" fill="none" xmlns="http://www.w3.org/2000/svg">
<path fill-rule="evenodd" clip-rule="evenodd" d="M48 1.125C48 1.74632 47.4758 2.25 46.8293 2.25H1.17073C0.524154 2.25 0 1.74632 0 1.125C0 0.50368 0.524153 0 1.17073 0H46.8293C47.4758 0 48 0.50368 48 1.125Z" fill="#524F4E"/>
<path fill-rule="evenodd" clip-rule="evenodd" d="M48 34.875C48 35.4963 47.4758 36 46.8293 36H1.17073C0.524154 36 0 35.4963 0 34.875C0 34.2537 0.524153 33.75 1.17073 33.75H46.8293C47.4758 33.75 48 34.2537 48 34.875Z" fill="#524F4E"/>
<path fill-rule="evenodd" clip-rule="evenodd" d="M1.17073 0C1.81731 0 2.34146 0.503681 2.34146 1.125L2.34146 34.875C2.34146 35.4963 1.81731 36 1.17073 36C0.524154 36 0 35.4963 0 34.875L0 1.125C0 0.503681 0.524154 0 1.17073 0Z" fill="#524F4E"/>
<path fill-rule="evenodd" clip-rule="evenodd" d="M46.8294 0C47.476 0 48.0002 0.503681 48.0002 1.125L48.0002 34.875C48.0002 35.4963 47.476 36 46.8294 36C46.1828 36 45.6587 35.4963 45.6587 34.875L45.6587 1.125C45.6587 0.503681 46.1828 0 46.8294 0Z" fill="#524F4E"/>
<path fill-rule="evenodd" clip-rule="evenodd" d="M23.5567 18.1491C23.176 17.6469 23.2909 16.9433 23.8135 16.5774L45.5763 1.34009C46.0989 0.974206 46.8312 1.08468 47.2119 1.58685C47.5927 2.08901 47.4777 2.7927 46.9552 3.15858L25.1924 18.3959C24.6698 18.7617 23.9375 18.6513 23.5567 18.1491Z" fill="#524F4E"/>
<path fill-rule="evenodd" clip-rule="evenodd" d="M0.901538 1.88038C1.27301 1.37184 2.00317 1.24896 2.53238 1.60592L24.8909 16.6871C25.4201 17.044 25.548 17.7456 25.1765 18.2542C24.805 18.7627 24.0749 18.8856 23.5457 18.5286L1.18715 3.44752C0.65794 3.09055 0.530064 2.38892 0.901538 1.88038Z" fill="#524F4E"/>
</svg>
