<svg width="48" height="48" viewBox="0 0 48 48" fill="none" xmlns="http://www.w3.org/2000/svg">
<g clip-path="url(#clip0_644_67082)">
<path d="M23.8977 21.5911H40.8668C40.9543 22.3414 41 23.1112 41 23.8985C41 29.2268 39.0511 33.7131 35.6744 36.7612C32.7213 39.4331 28.6784 41 23.858 41C21.5127 41.001 19.1902 40.5491 17.0232 39.6701C14.8563 38.7911 12.8873 37.5022 11.2288 35.8771C9.5704 34.2519 8.25499 32.3225 7.3578 30.1989C6.46061 28.0754 5.99922 25.7994 6 23.501C5.99896 21.2024 6.46015 18.9262 7.35723 16.8024C8.2543 14.6787 9.56967 12.749 11.2281 11.1236C12.8866 9.49831 14.8557 8.20924 17.0228 7.3301C19.1899 6.45095 21.5125 5.99898 23.858 6C28.6705 6 32.7134 7.73451 35.8057 10.5584L32.8983 13.4058C30.5955 11.225 27.4832 9.89777 23.8977 9.89777C22.0697 9.89777 20.2595 10.2506 18.5706 10.9362C16.8817 11.6218 15.3471 12.6267 14.0545 13.8935C12.7618 15.1603 11.7365 16.6642 11.0369 18.3193C10.3373 19.9745 9.97727 21.7484 9.97727 23.54C9.97727 25.3315 10.3373 27.1054 11.0369 28.7606C11.7365 30.4157 12.7618 31.9196 14.0545 33.1864C15.3471 34.4532 16.8817 35.4581 18.5706 36.1437C20.2595 36.8293 22.0697 37.1821 23.8977 37.1821C30.9097 37.1821 36.1159 32.0994 36.977 25.4888H23.8977V21.5911Z" fill="#524F4E"/>
</g>
<defs>
<clipPath id="clip0_644_67082">
<rect width="48" height="48" fill="white"/>
</clipPath>
</defs>
</svg>
