<svg width="48" height="48" viewBox="0 0 48 48" fill="none" xmlns="http://www.w3.org/2000/svg">
<path d="M39.72 15.4741C39.72 16.3368 39.66 17.179 39.56 17.9802C38.64 17.5693 37.64 17.3434 36.58 17.3434C34.14 17.3434 31.98 18.5553 30.64 20.4041C29.28 18.5553 27.12 17.3434 24.68 17.3434C20.58 17.3434 17.26 20.7738 17.26 25.026C17.26 30.5312 20.1 34.7423 23.26 37.5976C23.16 37.6592 23.06 37.6798 22.96 37.7209C22.36 37.9469 21.36 37.9469 20.76 37.7209C15.58 35.8927 4 28.3333 4 15.4741C4 9.80451 8.43998 5.22369 13.92 5.22369C17.18 5.22369 20.06 6.82594 21.86 9.3115C23.68 6.82594 26.56 5.22369 29.8 5.22369C35.28 5.22369 39.72 9.80451 39.72 15.4741Z" stroke="#455B88" stroke-width="2" stroke-linecap="round" stroke-linejoin="round"/>
<path d="M43.9998 25.0267C43.9998 34.6403 35.3398 40.3099 31.4598 41.6657C30.9998 41.83 30.2597 41.83 29.7997 41.6657C28.1397 41.0905 25.5998 39.7142 23.2598 37.5984C20.0998 34.743 17.2598 30.532 17.2598 25.0267C17.2598 20.7746 20.5797 17.3441 24.6797 17.3441C27.1198 17.3441 29.2798 18.5561 30.6398 20.4048C31.9798 18.5561 34.1398 17.3441 36.5798 17.3441C37.6398 17.3441 38.6398 17.5701 39.5598 17.9809C42.1798 19.1723 43.9998 21.8633 43.9998 25.0267Z" fill="#455B88" stroke="#455B88" stroke-width="2" stroke-linecap="round" stroke-linejoin="round"/>
</svg>
