<svg width="32" height="30" viewBox="0 0 32 30" fill="none" xmlns="http://www.w3.org/2000/svg">
<path d="M1.31016 15.7941C0.851015 15.7941 0.634639 15.2271 0.977041 14.9212L15.6669 1.7976C15.8566 1.6281 16.1434 1.6281 16.3331 1.7976L31.023 14.9212C31.3654 15.2271 31.149 15.7941 30.6898 15.7941H27.7C27.4239 15.7941 27.2 16.018 27.2 16.2941V28C27.2 28.2761 26.9761 28.5 26.7 28.5H5.3C5.02386 28.5 4.8 28.2761 4.8 28V16.2941C4.8 16.018 4.57614 15.7941 4.3 15.7941H1.31016ZM15.6635 25.0173C15.8543 25.1909 16.1457 25.1909 16.3365 25.0173L17.152 24.2753C21.28 20.5588 24 18.1129 24 15.1112C24 12.6653 22.064 10.7435 19.6 10.7435C18.4072 10.7435 17.2614 11.2217 16.4042 11.9981C16.1782 12.2027 15.8222 12.2024 15.5966 11.9973C15.2361 11.6695 14.8265 11.3974 14.3815 11.1913C13.7607 10.9037 13.0851 10.751 12.4 10.7435C9.936 10.7435 8 12.6653 8 15.1112C8 18.1129 10.72 20.5588 14.848 24.2753L15.6635 25.0173Z" fill="#455B88"/>
</svg>
