<svg width="32" height="32" viewBox="0 0 32 32" fill="none" xmlns="http://www.w3.org/2000/svg">
<path d="M11.1054 3.55279C11.2748 3.214 11.6211 3 11.9998 3H19.9998C20.3786 3 20.7249 3.214 20.8943 3.55279L22.8943 7.55279C23.0493 7.86277 23.0327 8.23092 22.8505 8.52573C22.6683 8.82055 22.3464 9 21.9998 9H9.99984C9.65326 9 9.33139 8.82055 9.14919 8.52573C8.96698 8.23092 8.95042 7.86277 9.10541 7.55279L11.1054 3.55279ZM12.6179 5L11.6179 7H20.3818L19.3818 5H12.6179Z" fill="#455B88"/>
<path d="M4.6665 9C4.11422 9 3.6665 9.44772 3.6665 10V26C3.6665 26.5523 4.11422 27 4.6665 27H27.3332C27.8855 27 28.3332 26.5523 28.3332 26V10C28.3332 9.44772 27.8855 9 27.3332 9H4.6665ZM1.6665 10C1.6665 8.34315 3.00965 7 4.6665 7H27.3332C28.99 7 30.3332 8.34315 30.3332 10V26C30.3332 27.6569 28.99 29 27.3332 29H4.6665C3.00965 29 1.6665 27.6569 1.6665 26V10Z" fill="#455B88"/>
<path d="M9.6665 18C9.6665 14.5022 12.502 11.6667 15.9998 11.6667C19.4977 11.6667 22.3332 14.5022 22.3332 18C22.3332 21.4978 19.4977 24.3333 15.9998 24.3333C12.502 24.3333 9.6665 21.4978 9.6665 18ZM15.9998 13.6667C13.6066 13.6667 11.6665 15.6068 11.6665 18C11.6665 20.3932 13.6066 22.3333 15.9998 22.3333C18.3931 22.3333 20.3332 20.3932 20.3332 18C20.3332 15.6068 18.3931 13.6667 15.9998 13.6667Z" fill="#455B88"/>
</svg>
