<svg width="543" height="266" viewBox="0 0 543 266" fill="none" xmlns="http://www.w3.org/2000/svg">
<path d="M383.286 178.985L382.33 179.103C376.23 138.792 386.516 96.4772 410.316 63.1206L411.153 63.7099C387.472 96.8308 377.306 138.792 383.286 178.985Z" fill="#455A64"/>
<path d="M409.359 64.653C409.838 63.1207 410.555 61.8241 411.392 60.6455C412.23 59.4668 413.186 58.406 414.263 57.3452C415.339 56.4022 416.416 55.4593 417.731 54.7521C418.927 54.0449 420.362 53.3377 421.917 52.8662C421.439 54.3985 420.721 55.695 419.884 56.8737C419.047 58.0524 418.09 59.1132 417.014 60.174C415.937 61.1169 414.861 62.0599 413.545 62.7671C412.349 63.5922 410.914 64.2994 409.359 64.653Z" fill="#455A64"/>
<path d="M391.898 58.5239C392.615 60.8813 393.094 63.2386 393.572 65.596L395.007 72.4323L396.323 79.2687C396.801 81.626 397.16 83.8655 397.399 86.4586C395.605 84.5727 394.409 82.4511 393.333 80.2116C392.256 77.9721 391.539 75.6148 391.06 73.2574C390.582 70.9 390.343 68.4248 390.462 65.9496C390.582 63.3565 390.941 60.8813 391.898 58.5239Z" fill="#455A64"/>
<path d="M397.04 86.9301C398.954 85.3978 400.868 84.1013 402.781 82.8047L408.522 79.033C410.436 77.8543 412.349 76.5577 414.263 75.3791C416.176 74.2004 418.21 72.9038 420.362 71.843C419.286 74.0825 417.851 75.9684 416.176 77.7364C414.502 79.5044 412.588 81.0367 410.675 82.3333C408.642 83.6298 406.489 84.6906 404.216 85.5157C401.824 86.2229 399.432 86.8123 397.04 86.9301Z" fill="#455A64"/>
<path d="M387.712 111.093C385.2 110.032 383.047 108.146 381.373 106.142C379.579 104.021 378.263 101.663 377.306 99.0704C376.35 96.4773 375.871 93.7663 375.991 91.0554C375.991 88.3444 376.589 85.6334 377.785 83.1582C378.144 85.8692 378.502 88.3444 378.981 90.7017C379.459 93.0591 380.177 95.4165 381.014 97.7738C381.851 100.013 382.808 102.253 383.884 104.492C385.08 106.614 386.396 108.736 387.712 111.093Z" fill="#455A64"/>
<path d="M386.755 110.386C389.266 108.971 391.658 107.793 393.931 106.378C396.203 105.082 398.476 103.667 400.628 102.135C402.781 100.603 404.934 99.0704 406.967 97.4203C409.12 95.7701 411.034 94.0021 413.306 92.1162C412.469 94.8272 410.914 97.3024 409.12 99.5419C407.326 101.781 405.173 103.667 402.781 105.317C400.389 106.968 397.758 108.264 395.127 109.089C392.496 110.032 389.625 110.621 386.755 110.386Z" fill="#455A64"/>
<path d="M382.808 136.081C379.818 134.784 377.187 132.781 374.795 130.423C372.522 128.066 370.489 125.473 368.934 122.526C367.38 119.697 366.303 116.515 365.586 113.332C364.988 110.15 364.748 106.85 365.346 103.667C366.423 106.732 367.38 109.678 368.576 112.507C369.772 115.336 370.968 118.047 372.403 120.758C373.838 123.469 375.393 125.944 377.067 128.537C378.861 131.13 380.775 133.488 382.808 136.081Z" fill="#455A64"/>
<path d="M382.33 135.256C384.602 133.606 386.755 132.191 388.788 130.777C390.821 129.244 392.854 127.712 394.768 126.18C396.682 124.53 398.595 122.88 400.389 121.112C402.183 119.344 403.977 117.458 406.01 115.572C405.532 118.283 404.336 120.758 402.781 122.997C401.226 125.237 399.432 127.359 397.28 129.127C395.127 130.895 392.854 132.309 390.343 133.488C387.831 134.431 385.08 135.138 382.33 135.256Z" fill="#455A64"/>
<path d="M432.997 179.654L431.801 179.301C446.631 131.682 480.358 90.3105 524.491 65.7939L525.089 66.8547C481.315 91.1355 447.708 132.271 432.997 179.654Z" fill="#455A64"/>
<path d="M522.577 67.0905C523.893 65.6761 525.448 64.6153 527.002 63.6724C528.557 62.8473 530.232 62.1401 531.906 61.5507C533.58 60.9614 535.255 60.6078 537.049 60.3721C538.843 60.1363 540.637 60.1363 542.67 60.4899C541.354 62.0222 539.8 62.9651 538.245 63.9081C536.69 64.7332 535.016 65.4404 533.341 66.0297C531.667 66.6191 529.992 66.9727 528.198 67.2084C526.404 67.4441 524.61 67.4441 522.577 67.0905Z" fill="#455A64"/>
<path d="M506.551 51.2961C506.072 54.3607 505.355 57.1895 504.757 59.9005L502.604 68.1512L500.451 76.402C499.734 79.2308 498.896 81.9418 497.94 84.8885C496.983 81.9418 496.744 78.8772 496.744 75.9305C496.863 72.9838 497.222 69.9192 497.94 66.9726C498.657 64.0259 499.734 61.197 501.169 58.6039C502.604 56.0108 504.278 53.4178 506.551 51.2961Z" fill="#455A64"/>
<path d="M497.102 85.2421C500.092 84.5349 502.843 84.0634 505.594 83.592L513.846 82.4133C516.597 82.0597 519.348 81.7061 522.099 81.3525C524.85 80.9989 527.72 80.6453 530.71 80.6453C528.438 82.5311 525.687 83.9456 522.936 85.0064C520.185 86.0672 517.315 86.7744 514.325 87.128C511.454 87.4816 508.464 87.5995 505.474 87.3637C502.843 87.0101 499.853 86.4208 497.102 85.2421Z" fill="#455A64"/>
<path d="M474.02 107.048C471.867 104.572 470.432 101.39 469.594 98.2075C468.757 95.0251 468.518 91.6069 468.877 88.3066C469.236 85.0063 470.192 81.706 471.628 78.7593C473.182 75.8126 475.216 73.1017 477.847 71.0979C476.77 74.2803 475.933 77.1092 475.216 80.0559C474.498 83.0026 474.02 85.9493 473.661 88.896C473.302 91.8426 473.182 94.7894 473.302 97.8539C473.422 100.683 473.661 103.747 474.02 107.048Z" fill="#455A64"/>
<path d="M473.302 105.869C476.77 105.633 480.119 105.515 483.348 105.162C486.578 104.926 489.807 104.455 493.036 103.983C496.265 103.512 499.375 102.805 502.604 102.097C505.833 101.39 508.943 100.447 512.411 99.6221C510.019 102.215 507.029 104.101 503.92 105.633C500.69 107.166 497.342 108.109 493.873 108.698C490.405 109.287 486.817 109.287 483.348 108.934C479.76 108.462 476.412 107.519 473.302 105.869Z" fill="#455A64"/>
<path d="M455.123 132.153C452.492 129.089 450.698 125.553 449.382 121.781C448.066 118.009 447.349 114.12 447.11 110.112C446.99 106.105 447.349 102.097 448.306 98.3253C449.262 94.4357 450.817 90.7818 453.209 87.5994C452.731 91.489 452.252 95.2608 452.013 98.9147C451.774 102.569 451.654 106.34 451.894 109.994C452.013 113.648 452.372 117.302 452.97 120.956C453.568 124.61 454.405 128.264 455.123 132.153Z" fill="#455A64"/>
<path d="M455.123 130.975C458.472 130.385 461.581 129.914 464.691 129.325C467.8 128.735 470.79 128.028 473.78 127.321C476.77 126.496 479.76 125.671 482.631 124.61C485.621 123.667 488.611 122.488 491.72 121.427C489.687 124.138 487.056 126.26 484.186 128.028C481.315 129.796 478.206 131.093 474.857 131.918C471.628 132.743 468.159 133.214 464.81 133.096C461.581 132.861 458.232 132.271 455.123 130.975Z" fill="#455A64"/>
<path d="M255.064 237.165L254.314 237.745C228.339 206.299 215.227 164.923 218.198 124.437L219.212 124.522C216.221 164.745 229.252 205.76 255.064 237.165Z" fill="#455A64"/>
<path d="M218.754 126.046C218.364 124.487 218.302 123.01 218.404 121.574C218.506 120.138 218.772 118.743 219.141 117.288C219.571 115.935 220.001 114.581 220.759 113.31C221.415 112.099 222.275 110.767 223.361 109.578C223.751 111.137 223.813 112.614 223.711 114.05C223.608 115.486 223.342 116.881 222.974 118.336C222.544 119.69 222.114 121.043 221.356 122.315C220.762 123.627 219.901 124.959 218.754 126.046Z" fill="#455A64"/>
<path d="M200.433 129.78C202.257 131.437 203.879 133.215 205.5 134.993L210.243 140.125L214.885 145.316C216.507 147.094 217.966 148.831 219.506 150.93C217.013 150.216 214.904 149 212.837 147.622C210.769 146.245 208.944 144.587 207.323 142.81C205.701 141.032 204.222 139.033 203.046 136.855C201.81 134.575 200.838 132.277 200.433 129.78Z" fill="#455A64"/>
<path d="M219.549 151.423C220.391 149.135 221.356 147.05 222.32 144.964L225.277 138.811C226.303 136.827 227.268 134.742 228.295 132.758C229.321 130.775 230.389 128.629 231.682 126.627C231.93 129.102 231.684 131.454 231.171 133.825C230.658 136.196 229.816 138.485 228.851 140.57C227.784 142.716 226.49 144.718 224.971 146.578C223.287 148.396 221.541 150.113 219.549 151.423Z" fill="#455A64"/>
<path d="M223.755 177.024C221.068 177.375 218.26 176.84 215.798 175.963C213.172 175.046 210.832 173.687 208.675 171.945C206.518 170.204 204.707 168.121 203.404 165.739C202 163.416 201.104 160.794 200.84 158.073C202.549 160.215 204.137 162.156 205.765 163.935C207.393 165.715 209.224 167.374 211.158 168.974C213.03 170.472 215.004 171.911 217.08 173.289C219.196 174.507 221.414 175.664 223.755 177.024Z" fill="#455A64"/>
<path d="M222.693 176.767C224.109 174.279 225.546 172.055 226.757 169.688C228.029 167.423 229.24 165.056 230.287 162.648C231.333 160.239 232.38 157.831 233.262 155.382C234.247 152.872 234.965 150.381 235.93 147.608C236.629 150.368 236.588 153.287 236.219 156.124C235.85 158.961 234.989 161.674 233.798 164.305C232.608 166.935 231.028 169.382 229.201 171.422C227.435 173.563 225.28 175.521 222.693 176.767Z" fill="#455A64"/>
<path d="M232.31 200.97C229.088 201.36 225.805 200.964 222.542 200.144C219.381 199.264 216.301 198.061 213.446 196.315C210.652 194.671 208.082 192.483 205.818 190.114C203.656 187.686 201.739 184.976 200.596 181.947C203.105 184.034 205.45 186.08 207.939 187.905C210.427 189.73 212.854 191.454 215.485 193.058C218.116 194.661 220.726 196.003 223.5 197.385C226.375 198.708 229.231 199.768 232.31 200.97Z" fill="#455A64"/>
<path d="M231.593 200.318C232.679 197.751 233.786 195.448 234.791 193.205C235.734 190.86 236.677 188.515 237.517 186.231C238.296 183.845 239.075 181.459 239.69 179.032C240.304 176.605 240.857 174.076 241.616 171.427C242.621 174.003 242.889 176.737 242.725 179.45C242.562 182.162 242.132 184.893 241.209 187.501C240.287 190.109 239.078 192.473 237.54 194.755C235.879 196.833 233.89 198.829 231.593 200.318Z" fill="#455A64"/>
<path d="M324.413 220.832L323.283 221.351C302.109 176.191 299.233 123.315 315.51 76.1796L316.673 76.5781C300.504 123.303 303.309 175.925 324.413 220.832Z" fill="#455A64"/>
<path d="M315.805 78.1175C315.828 76.1902 316.271 74.3704 316.794 72.6389C317.397 70.9958 318.17 69.3623 319.023 67.8171C319.876 66.272 320.889 64.9036 322.073 63.5447C323.256 62.1858 324.6 61.0037 326.363 59.9291C326.421 61.9448 325.898 63.6763 325.375 65.4077C324.772 67.0508 323.999 68.6844 323.146 70.2295C322.292 71.7747 321.279 73.1431 320.096 74.502C318.912 75.8608 317.568 77.0429 315.805 78.1175Z" fill="#455A64"/>
<path d="M293.034 77.128C294.74 79.7144 296.111 82.2819 297.491 84.6838L301.445 92.2113L305.398 99.7388C306.769 102.306 307.972 104.864 309.245 107.675C306.556 106.113 304.318 103.994 302.337 101.807C300.444 99.5425 298.649 97.0342 297.199 94.3792C295.749 91.7243 294.644 88.9227 293.963 86.0621C293.282 83.2015 292.778 80.1849 293.034 77.128Z" fill="#455A64"/>
<path d="M308.763 108.475C310.523 105.968 312.265 103.796 314.007 101.624L319.393 95.2847C321.215 93.2012 323.037 91.1177 324.859 89.0342C326.681 86.9508 328.593 84.7882 330.835 82.8126C330.415 85.7319 329.316 88.613 327.975 91.2281C326.635 93.8433 324.964 96.2716 322.963 98.5132C321.051 100.676 318.889 102.74 316.486 104.538C314.272 106.011 311.628 107.544 308.763 108.475Z" fill="#455A64"/>
<path d="M306.024 140.044C302.768 139.612 299.569 138.186 296.811 136.371C294.054 134.556 291.58 132.176 289.629 129.493C287.677 126.81 286.167 123.737 285.249 120.615C284.419 117.415 284.102 114.077 284.702 110.874C286.044 113.938 287.325 116.583 288.774 119.237C290.223 121.891 291.849 124.39 293.563 126.81C295.278 129.231 297.169 131.495 299.316 133.691C301.305 135.712 303.541 137.829 306.024 140.044Z" fill="#455A64"/>
<path d="M304.67 139.559C307.11 137.092 309.54 134.792 311.72 132.395C313.981 130.086 316.081 127.599 318.18 125.113C320.28 122.627 322.13 120.043 324.069 117.38C326.009 114.716 327.698 111.955 329.736 109.045C329.709 112.573 328.751 115.963 327.464 119.167C326.086 122.45 324.218 125.37 322.019 128.102C319.82 130.835 317.13 133.204 314.289 135.228C311.278 137.243 308.125 138.745 304.67 139.559Z" fill="#455A64"/>
<path d="M308.546 171.246C304.547 170.689 300.85 169.236 297.348 167.296C293.846 165.356 290.707 162.939 287.842 160.123C285.066 157.229 282.643 154.022 280.819 150.601C278.917 147.093 277.614 143.369 277.247 139.449C279.502 142.646 281.679 145.755 283.953 148.621C286.228 151.487 288.669 154.362 291.297 156.917C293.836 159.549 296.552 162.025 299.445 164.345C302.338 166.665 305.407 168.829 308.546 171.246Z" fill="#455A64"/>
<path d="M307.813 170.253C309.921 167.603 311.93 165.199 313.859 162.707C315.787 160.214 317.546 157.712 319.305 155.21C320.984 152.62 322.662 150.03 324.091 147.341C325.689 144.663 327.127 141.807 328.735 138.961C329.057 142.335 328.53 145.662 327.582 148.881C326.635 152.099 325.188 155.122 323.24 157.949C321.382 160.697 319.105 163.338 316.515 165.457C313.935 167.409 311.025 169.175 307.813 170.253Z" fill="#455A64"/>
<path d="M113.87 123.091C123.702 120.248 132.359 113.823 137.916 105.397C143.474 96.8652 145.825 86.4379 144.329 76.4319C143.474 70.323 140.588 63.6874 135.993 59.5797C131.397 55.472 125.305 53.0495 119.214 51.8909C113.442 50.8376 107.03 50.9429 102.007 54.1027C94.7394 58.5264 92.1744 67.5845 91.2125 75.9053C90.3575 84.226 90.4644 93.0734 86.4032 100.446C82.9832 106.66 76.7845 111.927 76.5708 118.984C76.357 124.671 80.3114 129.622 83.4107 134.572C88.1132 142.05 91.2125 150.581 92.3881 159.429C93.1362 164.695 99.9762 166.17 105.427 165.748C107.137 165.643 109.167 164.906 109.595 163.221C109.915 162.062 109.167 160.798 108.206 160.061C107.244 159.324 105.961 159.008 104.786 158.692C100.404 146.895 105.534 132.36 113.87 123.091Z" fill="#C9863A"/>
<path d="M239.34 79.5916C235.813 85.8059 238.164 94.548 244.256 98.2344C247.035 99.9196 250.669 100.657 252.592 103.29C254.516 105.923 254.195 109.504 253.768 112.664C252.592 121.827 247.997 129.938 244.363 138.574C243.401 140.891 245.645 144.367 243.829 146.052C242.012 147.738 231.431 141.207 232.393 136.889C233.355 132.571 238.164 121.827 238.271 117.404C238.485 112.243 221.706 103.606 218.499 99.4983C211.232 90.4402 210.056 77.0638 215.614 66.8472L239.34 79.5916Z" fill="#C9863A"/>
<path d="M278.99 26.4018C281.021 26.2965 283.051 26.1912 285.296 25.8752C287.861 25.5592 289.784 31.4575 288.074 37.3557C283.265 35.2492 279.311 31.2468 278.99 26.4018Z" fill="#653422"/>
<path d="M92.0675 67.1632C92.1744 66.2153 92.2813 65.162 92.3881 64.214C94.7394 47.7832 108.419 36.9346 124.237 33.2481C146.787 28.0872 170.299 35.46 193.17 33.1428C201.4 32.3002 211.873 30.4043 217.11 23.3475C220.744 18.5025 221.813 13.0255 226.836 9.12846C232.072 5.02074 238.699 2.80888 245.432 3.75682C256.333 5.23138 266.272 15.1321 267.02 25.9806C271.295 26.402 275.036 26.6126 278.99 26.5073C279.311 31.3523 283.265 35.3547 288.074 37.5665C286.258 44.0968 280.273 50.7323 266.165 49.4684C266.272 49.4684 266.379 49.5737 266.486 49.679C267.555 51.0483 266.593 53.0495 264.883 53.1548C260.18 53.5761 258.257 53.3655 254.195 55.9986C244.577 62.3182 243.935 78.0118 238.592 87.0698C235.599 92.1255 230.683 95.9172 225.233 98.5504C197.552 111.927 160.574 112.875 130.649 108.662C109.274 105.607 90.5713 89.2817 92.0675 67.1632Z" fill="#DDA15E"/>
<path d="M231.538 12.2882C216.576 34.4067 195.201 43.8861 170.62 38.6198C143.688 31.7736 114.084 35.8813 96.0218 53.1548C101.579 42.8328 112.267 35.9866 124.237 33.2481C146.787 28.0872 170.299 35.46 193.17 33.1428C201.4 32.3002 211.873 30.4043 217.11 23.3475C220.744 18.5025 221.813 13.0255 226.836 9.12846C232.072 5.02074 238.699 2.80888 245.432 3.75682C250.775 4.4941 255.905 7.23258 259.753 11.1297C250.775 4.4941 237.096 3.96748 231.538 12.2882Z" fill="#F5BC7D"/>
<path d="M202.682 96.5488C200.972 99.9192 199.903 103.606 198.514 107.292C176.177 111.926 151.596 111.61 130.542 108.661C117.504 106.871 105.534 100.025 98.3731 90.0186C131.611 101.92 167.2 106.133 202.682 96.5488Z" fill="#C9863A"/>
<path d="M263.6 23.3474C262.745 22.5046 261.355 22.5046 260.5 23.3474C259.645 24.1902 259.645 25.5596 260.5 26.4024C261.355 27.2451 262.745 27.2451 263.6 26.4024C264.455 25.5596 264.455 24.1902 263.6 23.3474Z" fill="#222221"/>
<path d="M233.248 52.9439C235.172 52.9439 236.989 52.7333 238.592 52.5226C243.615 51.8907 250.027 49.9948 251.844 44.7285C253.127 41.2527 251.844 37.5663 250.562 34.0905C250.241 33.1426 249.92 32.1947 249.6 31.3521C247.783 25.1378 248.317 18.1863 251.096 12.3934C251.203 12.1827 251.096 11.8667 250.882 11.6561C250.669 11.5507 250.348 11.6561 250.134 11.8667C247.142 17.9756 246.607 25.1378 248.531 31.668C248.852 32.616 249.172 33.5639 249.493 34.5119C250.669 37.8823 251.844 41.2527 250.775 44.4125C249.065 49.1522 243.08 50.8374 238.378 51.4693C235.172 51.8907 231.324 52.2066 227.691 51.1534C223.95 50.1001 220.958 47.783 219.782 44.9391C217.644 39.9888 220.423 34.1959 222.774 30.1935L223.416 29.1402C226.088 24.7165 228.759 20.1875 228.332 15.0265C228.332 14.7105 228.011 14.4999 227.797 14.4999C227.477 14.4999 227.263 14.8159 227.263 15.0265C227.691 19.7662 225.019 24.1899 222.454 28.5083L221.813 29.5615C219.354 33.6692 216.362 39.7782 218.713 45.2551C220.103 48.4149 223.309 51.048 227.37 52.1013C229.401 52.7333 231.324 52.9439 233.248 52.9439Z" fill="#BD782B"/>
<path d="M235.065 74.7464C223.416 101.605 211.66 129.2 209.95 158.27C209.736 161.641 214.118 163.852 211.018 165.432C208.026 166.907 199.476 166.802 197.873 163.958C196.27 161.114 196.27 157.638 196.27 154.373C196.377 147.737 196.377 141.207 196.483 134.572C196.483 130.885 196.59 127.199 195.415 123.723C194.453 120.774 192.636 118.141 191.674 115.086C189.964 109.715 191.14 103.922 192.315 98.4448C194.453 88.7548 196.483 79.0648 199.262 69.5854" fill="#DDA15E"/>
<path d="M135.672 123.091C144.436 120.248 150.848 113.823 153.413 105.397C155.978 96.8652 154.482 86.4379 149.459 76.4319C146.36 70.323 141.23 63.6874 135.031 59.5797C128.939 55.472 121.992 53.0495 115.473 51.8909C109.274 50.8376 102.969 50.9429 99.0143 54.1027C93.35 58.5264 93.9912 67.5845 96.0219 75.9053C98.0525 84.226 101.366 93.0734 99.9762 100.446C98.8006 106.66 94.4188 111.927 96.77 118.984C98.5868 124.671 104.358 129.622 109.167 134.572C116.649 142.05 122.74 150.581 127.015 159.429C129.58 164.695 137.061 166.17 142.298 165.748C144.008 165.643 145.718 164.906 145.611 163.221C145.505 162.062 144.329 160.798 143.046 160.061C141.764 159.324 140.481 159.008 139.092 158.692C130.649 146.895 130.756 132.36 135.672 123.091Z" fill="#DDA15E"/>
<path d="M132.573 55.9984C137.703 58.7369 142.085 62.8446 145.718 67.3736C149.245 71.7973 152.238 76.7477 153.948 82.2246C157.368 92.6519 156.192 104.87 149.031 113.507C144.863 118.562 139.199 122.038 133.535 125.514C133 125.83 132.359 124.987 132.893 124.671C137.703 121.722 142.619 118.773 146.573 114.665C150.314 110.768 152.879 105.818 153.948 100.551C156.192 89.7028 152.665 78.6435 146.146 69.7961C142.405 64.7405 137.703 60.0008 132.038 56.9463C131.504 56.6304 131.931 55.6824 132.573 55.9984Z" fill="#C9863A"/>
<path d="M230.683 55.0505C230.79 54.4185 231.752 54.5238 231.752 55.2611C231.111 62.9499 233.676 70.4281 236.027 77.5903C236.241 78.2222 235.279 78.6435 235.065 78.0116C232.607 70.5334 230.042 62.9499 230.683 55.0505Z" fill="#C9863A"/>
<path d="M228.653 71.4815C228.653 75.7998 229.08 80.0129 230.042 84.2259C230.149 84.8579 229.08 84.9632 228.973 84.3313C228.011 80.1182 227.584 75.9052 227.584 71.5868C227.584 70.9548 228.653 70.8495 228.653 71.4815Z" fill="#C9863A"/>
<path d="M223.629 84.9633C223.95 87.4911 224.484 90.019 225.233 92.4415C225.446 93.0734 224.484 93.4947 224.271 92.8628C223.416 90.3349 222.881 87.7018 222.561 85.1739C222.454 84.4367 223.523 84.3313 223.629 84.9633Z" fill="#C9863A"/>
<path d="M100.404 46.0981C93.6706 51.5751 84.6932 55.0508 76.1433 53.5762C65.1353 51.6804 56.6922 41.6744 55.0891 30.8258C53.486 19.9772 57.8678 8.81261 65.2421 0.597168C53.1654 4.70489 43.4398 14.7109 39.6992 26.718C35.9587 38.7252 38.5236 52.4177 46.1117 62.4236C44.188 61.897 42.3711 61.2651 40.4473 60.7384C44.1879 69.5858 54.341 75.3787 63.9596 74.1148C61.2878 75.1681 58.6159 76.1161 55.9441 77.1693C64.1734 79.6971 73.4714 78.5385 80.8457 74.1148C79.777 76.2214 78.6014 78.2226 77.5326 80.3291C88.8613 74.0095 98.48 64.5302 104.786 53.2603C104.892 53.2603 107.137 40.6211 100.404 46.0981Z" fill="#DDA15E"/>
<path d="M67.0589 70.1121C73.4714 69.5855 79.67 67.2683 84.9069 63.5819C85.4412 63.1606 86.0825 64.0032 85.5481 64.4245C80.2044 68.3216 73.792 70.6387 67.1658 71.1654C66.5245 71.2707 66.4177 70.2174 67.0589 70.1121Z" fill="#C9863A"/>
<path d="M56.0509 63.582C61.6084 65.1619 67.5934 64.846 72.9371 62.6341C73.5783 62.3181 74.0058 63.3714 73.3646 63.582C67.8071 65.8992 61.5015 66.2152 55.7303 64.53C54.9822 64.3194 55.4097 63.3714 56.0509 63.582Z" fill="#C9863A"/>
<path d="M45.4704 47.151C47.6079 53.5759 54.8753 55.5771 60.8602 57.0516C61.5015 57.2623 61.3946 58.2102 60.6465 58.1049C54.341 56.525 46.7529 54.4185 44.5085 47.5723C44.2948 46.9403 45.2567 46.519 45.4704 47.151Z" fill="#C9863A"/>
<path d="M203.644 31.2469C206.957 37.6718 211.232 43.5701 216.255 48.9417C221.278 54.208 227.049 58.8424 233.355 62.6341C237.202 64.9513 241.371 67.1632 245.859 67.7951C246.501 67.9004 246.394 68.9537 245.646 68.8484C241.477 68.2164 237.737 66.4259 234.103 64.3194C230.897 62.5288 227.798 60.4223 224.912 58.2105C218.927 53.6814 213.69 48.3098 209.202 42.3062C206.743 38.9358 204.499 35.46 202.575 31.6682C202.362 31.0363 203.323 30.615 203.644 31.2469Z" fill="#14213D"/>
<path d="M15.3847 109.434C8.02645 105.242 2.62271 94.4774 8.83125 86.5459C10.5558 85.5261 12.3954 84.9596 14.35 85.0729C12.8553 87.1124 11.2457 89.2653 10.4409 91.758C9.52108 94.1375 9.40612 96.9702 10.6708 99.2364C12.7403 103.089 17.9141 104.222 22.2831 103.655C26.6521 103.089 30.9061 101.503 35.39 101.616L26.1922 111.02C22.628 111.36 19.0639 110.907 15.3847 109.434Z" fill="#B87F3F"/>
<path d="M1.81783 98.1033C2.3927 94.9307 3.54245 91.6448 5.61196 89.152C6.53174 88.1322 7.56648 87.2257 8.71621 86.5459C2.50767 94.4774 7.91141 105.242 15.2697 109.434C19.0638 111.02 22.513 111.36 25.9622 110.907L23.7777 113.06C20.0985 113.513 16.3044 114.08 12.5103 113.513C8.83121 112.947 5.03708 111.134 3.08254 108.074C1.35795 105.128 1.24297 101.503 1.81783 98.1033Z" fill="#986934"/>
<path d="M26.4221 106.035C32.5157 106.828 38.0344 110.794 41.0237 116.119C44.013 121.445 44.3579 128.017 42.5184 133.795C40.6788 139.574 36.5398 144.56 31.4809 147.959C30.2162 151.358 31.8258 155.89 35.1601 157.477C36.5397 158.157 38.3793 158.836 38.2643 160.309C38.2643 161.442 36.9996 162.122 35.9649 162.462C32.4007 163.482 28.3767 162.802 25.5023 160.423C22.628 158.157 21.1334 154.644 19.6387 151.245C15.8446 142.293 12.0505 133.455 8.25639 124.504L26.4221 106.035Z" fill="#664623"/>
<path d="M108.398 136.628C106.558 143.54 106.673 150.905 108.628 157.816C109.318 160.309 107.478 162.689 104.834 162.689C102.649 162.689 100.465 162.235 98.9701 160.649C96.2108 157.816 94.9461 151.018 94.4862 147.166C94.0263 143.313 94.7161 139.461 95.291 135.608L108.398 136.628Z" fill="#664623"/>
<path d="M107.133 94.7041C103.224 101.503 94.716 104.222 86.7829 105.242C76.4353 106.601 65.8578 106.035 55.7402 103.542C48.7268 101.842 41.8284 99.2364 34.7001 99.463C27.1119 99.6896 19.6386 103.089 14.6948 108.754C9.52102 114.646 7.22157 123.371 10.6708 130.283C12.8552 134.702 17.1092 137.874 21.4782 140.141C34.0103 146.599 48.8418 147.052 62.9835 147.166C75.4005 147.392 87.9326 147.506 100.235 145.579C105.983 144.673 112.077 143.2 116.216 139.121C120.815 134.702 122.195 127.79 121.275 121.445C120.47 115.213 117.711 109.321 114.951 103.542" fill="#986934"/>
<path d="M105.064 142.293C105.524 142.293 105.639 143.313 105.409 144.786C103.684 145.239 101.959 145.579 100.12 145.806C87.8177 147.619 75.2857 147.506 62.8686 147.392C48.7269 147.166 33.8954 146.712 21.3633 140.367C16.8794 138.101 12.7404 134.928 10.5559 130.509C9.981 129.376 9.63609 128.243 9.40614 127.11C35.9649 145.013 73.1012 143.2 105.064 142.293Z" fill="#664623"/>
<path d="M55.7402 103.542C65.8578 106.035 76.4353 106.601 86.7829 105.242C94.6011 104.222 103.109 101.503 107.133 94.7041L108.283 95.9505C100.235 106.035 87.7027 111.587 76.3204 110.454C57.6947 107.961 36.0798 103.202 17.5692 106.035C22.283 102.069 28.4916 99.5763 34.8151 99.463C41.8285 99.3497 48.7268 101.956 55.7402 103.542Z" fill="#B87F3F"/>
<path d="M135.876 96.0637C138.176 95.7238 140.36 95.1573 142.545 94.4774C144.269 93.9109 146.109 94.9306 146.454 96.6303C147.029 99.463 146.799 102.409 145.764 105.242C141.855 102.976 138.406 99.9162 135.876 96.0637Z" fill="#653422"/>
<path d="M94.831 90.3986C98.2802 83.7135 105.179 79.0679 113.802 80.5409C121.39 81.9006 127.598 88.9257 127.828 96.5173C130.473 96.6306 133.117 96.5173 135.761 96.064C138.291 99.9165 141.74 102.976 145.649 105.242C144.499 108.301 142.66 111.134 140.245 113.287C134.727 118.159 127.138 119.972 119.665 120.199C109.203 120.539 98.2802 117.593 93.9112 107.055C91.7267 101.616 92.3016 95.3842 94.831 90.3986Z" fill="#986934"/>
<path d="M113.802 80.5409C117.251 81.2207 120.47 83.0336 122.999 85.5264C116.906 81.9005 108.628 83.7135 102.189 85.9796C98.5102 87.5659 95.8658 90.3986 93.5664 93.5713C93.9113 92.4382 94.3712 91.3051 94.8311 90.2853C98.2803 83.7135 105.179 79.0679 113.802 80.5409Z" fill="#B87F3F"/>
<path d="M102.189 86.0926C108.628 83.7131 116.906 82.0135 122.999 85.6394C125.874 88.5854 127.713 92.5511 127.828 96.6302C130.473 96.7435 133.117 96.6302 135.761 96.177C138.291 100.029 141.74 103.089 145.649 105.355C144.499 108.414 142.66 111.247 140.245 113.4C134.727 118.272 127.138 120.085 119.665 120.312C109.203 120.652 98.2802 117.705 93.9112 107.168C92.0716 102.749 92.0716 97.9899 93.3363 93.6842C95.8657 90.5116 98.5101 87.6789 102.189 86.0926Z" fill="#986934"/>
<path d="M124.839 95.1571C124.034 94.364 122.769 94.364 121.965 95.1571C121.16 95.9503 121.16 97.1967 121.965 97.9898C122.769 98.783 124.034 98.783 124.839 97.9898C125.644 97.1967 125.644 95.9503 124.839 95.1571Z" fill="#222221"/>
<path d="M103.914 86.8857C108.743 86.8857 112.882 90.3983 113.687 95.1572C114.376 99.8028 115.641 104.222 117.136 108.641C118.515 112.493 120.24 116.119 120.01 120.312C119.895 122.011 119.435 123.824 118.515 125.297C116.446 128.583 113.342 130.509 109.433 131.189C105.638 131.756 100.35 131.302 97.1305 129.263C94.6011 127.677 92.7615 125.184 91.8417 122.464C90.807 119.745 90.577 116.686 90.692 113.853C90.9219 107.734 92.5316 100.256 94.6011 93.6842C95.8658 89.4918 99.6599 86.8857 103.914 86.8857Z" fill="#986934"/>
<path d="M90.462 116.686C90.8069 109.434 92.4165 102.296 94.9459 95.4972C95.1759 94.9307 96.0957 95.2706 95.8658 95.9505C93.6813 101.616 92.3016 107.621 91.6117 113.74C91.2668 116.572 91.0369 119.632 91.7267 122.351C92.4166 124.957 94.2561 126.997 96.5556 128.356C99.085 129.829 102.074 130.396 104.949 130.736C107.823 131.076 110.927 131.076 113.457 129.716C118.285 126.997 119.78 121.218 119.55 116.119C119.435 112.947 118.975 109.661 118.285 106.488C117.711 103.542 116.676 100.596 114.721 98.2166C114.376 97.7634 115.066 97.1969 115.526 97.6501C117.366 99.8029 118.4 102.522 118.975 105.242C119.665 108.188 120.125 111.247 120.355 114.306C120.815 119.858 119.895 125.977 115.296 129.603C112.997 131.416 110.237 131.982 107.363 131.869C104.259 131.756 101.04 131.302 98.1652 130.169C95.6358 129.15 93.2214 127.563 91.8417 125.184C90.462 122.578 90.2321 119.632 90.462 116.686Z" fill="#653422"/>
<path d="M113.227 136.288C116.216 142.293 120.7 147.505 126.219 151.358C128.978 153.284 128.173 157.476 124.954 158.27C123.574 158.61 122.08 158.723 120.585 158.609C116.676 158.27 112.537 155.89 109.663 153.171C106.788 150.565 96.9006 141.047 94.8311 137.648L113.227 136.288Z" fill="#986934"/>
<path d="M33.0905 113.74C37.2295 118.272 39.1841 123.371 38.9541 130.169C38.7242 136.175 34.3552 142.293 29.1814 145.466C23.8927 148.639 19.2938 149.432 13.2002 148.752C9.98095 150.565 8.25635 154.984 9.63603 158.383C10.2109 159.743 11.1307 161.442 10.0959 162.575C9.2911 163.369 7.91144 163.142 6.87668 162.689C3.42749 161.216 0.898064 158.043 0.208225 154.417C-0.481609 150.791 0.668114 147.166 1.81784 143.653C4.80714 134.475 7.79646 125.297 10.9007 116.006L33.0905 113.74Z" fill="#986934"/>
<path d="M12.3955 147.732C18.2591 148.412 24.4676 147.619 29.5264 144.673C34.3553 141.84 37.6895 137.081 38.3794 131.529C38.7243 128.583 38.2644 125.524 36.6548 122.918C36.3098 122.238 37.2296 121.671 37.5745 122.238C40.5638 127.223 40.104 133.455 37.3446 138.441C34.3553 143.766 28.9516 147.166 22.973 148.525C19.5238 149.318 15.8446 149.432 12.2805 148.978C11.5906 148.752 11.7056 147.619 12.3955 147.732Z" fill="#653422"/>
</svg>
