<svg width="439" height="610" viewBox="0 0 439 610" fill="none" xmlns="http://www.w3.org/2000/svg">
<path d="M282.844 550.802C240.754 537.173 198.364 515.25 173.455 475.674C152.148 441.763 145.921 398.492 123.563 365.484C103.681 336.172 71.4197 317.287 38.108 315.563C25.7287 314.906 13.3493 316.63 1.49518 320.407V607.293H438.073C428.845 600.889 419.166 595.305 409.263 590.625C368.974 571.576 324.933 564.432 282.844 550.802Z" fill="#F5F5D4"/>
<path d="M92.6983 464.059C89.9223 475.718 86.096 489.102 80.9192 502.814C75.7424 516.526 69.2151 530.649 61.6374 544.032C54.0598 557.416 45.3567 570.061 36.4286 581.228C27.5005 592.394 18.2723 602.083 9.94434 609.965C18.6474 602.494 28.1757 593.133 37.3289 582.131C46.4821 571.128 55.3352 558.483 62.9879 545.018C70.6406 531.552 77.0928 517.265 82.0446 503.389C86.9963 489.348 90.4475 475.883 92.6983 464.059Z" fill="#768B95"/>
<path d="M108.754 361.259C102.677 371.194 97.8002 381.951 93.7488 393.035C89.7724 404.12 86.6964 415.615 84.4456 427.274C82.1948 438.934 80.7693 450.839 80.3941 462.745C80.019 474.651 80.5442 486.638 82.4199 498.462C91.8732 492.55 100.426 483.683 107.179 472.844C113.931 462.006 118.808 449.197 121.434 435.814C123.984 422.43 124.209 408.554 122.034 395.663C119.858 382.689 115.281 370.866 108.754 361.259Z" fill="#768B95"/>
<path d="M39.3543 413.973C32.9771 420.952 28.1004 430.559 25.6245 441.397C23.0736 452.235 22.8485 464.305 25.0993 475.8C27.3501 487.296 31.9267 498.298 38.2289 507.084C44.5311 515.869 52.4839 522.52 60.8868 526.133C61.1869 516.198 60.7368 506.427 59.8365 496.902C58.9362 487.378 57.5857 478.017 55.7851 468.739C53.9844 459.461 51.8087 450.265 49.1827 441.151C46.4068 432.037 43.2557 422.923 39.3543 413.973Z" fill="#768B95"/>
<path d="M168.4 482.287C162.698 491.73 155.345 502.157 146.492 512.174C137.639 522.192 127.135 531.716 115.882 539.845C104.553 547.974 92.4733 554.707 80.5442 559.715C68.615 564.724 56.9859 568.008 46.7823 569.979C57.0609 568.501 68.8401 565.627 80.9193 560.783C92.9985 556.02 105.303 549.287 116.707 541.077C128.111 532.866 138.539 523.095 147.318 512.913C156.096 502.814 163.148 492.058 168.4 482.287Z" fill="#768B95"/>
<path d="M191.283 429.492C185.206 434.911 179.804 440.987 174.852 447.556C169.9 454.042 165.474 461.021 161.497 468.247C157.521 475.472 154.07 483.026 151.144 490.909C148.218 498.791 145.892 506.92 144.391 515.295C152.119 514.063 159.922 510.45 166.899 504.867C173.877 499.366 180.104 491.894 184.756 483.437C189.407 474.98 192.483 465.455 193.609 456.095C194.659 446.734 193.909 437.538 191.283 429.492Z" fill="#768B95"/>
<path d="M147.618 453.713C139.815 455.766 132.162 460.118 125.41 466.276C118.657 472.434 112.805 480.481 108.604 489.348C104.402 498.298 101.777 508.069 101.026 517.676C100.276 527.282 101.476 536.643 104.402 544.771C110.405 538.942 115.731 532.455 120.533 525.476C125.335 518.497 129.536 511.107 133.138 503.307C136.814 495.589 139.965 487.542 142.366 479.249C144.917 470.956 146.717 462.417 147.618 453.713Z" fill="#768B95"/>
<path d="M183.405 556.431C175.227 554.46 167.049 553.393 158.872 552.9C150.694 552.408 142.666 552.49 134.563 553.064C126.535 553.639 118.432 554.706 110.48 556.349C102.452 557.991 94.499 560.29 86.5462 563.328C91.798 570.389 99.3007 576.219 108.004 579.914C116.707 583.691 126.61 585.333 136.439 584.594C146.267 583.855 155.87 580.817 164.048 575.89C172.301 571.046 178.979 564.231 183.405 556.431Z" fill="#768B95"/>
<path d="M-1.60977 481.63C-8.06203 488.61 -12.8637 498.298 -15.2646 509.301C-17.6654 520.303 -17.5904 532.455 -15.0395 544.033C-12.4886 555.61 -7.3868 566.448 -0.70946 574.987C6.0429 583.527 14.3708 589.767 22.9988 592.723C22.6987 582.788 21.7234 573.099 20.4479 563.656C19.1725 554.214 17.4469 545.018 15.4212 535.904C13.3955 526.79 11.0697 517.758 8.21867 508.726C5.51772 499.694 2.29159 490.662 -1.60977 481.63Z" fill="#768B95"/>
<path d="M-31.845 57.8695L-31.6949 59.019C-31.0197 65.5876 -29.3691 72.4026 -26.8933 79.2176C-24.5674 85.622 -21.5664 91.9444 -17.8901 97.9383C-14.2888 103.932 -10.1624 109.433 -5.58579 114.278C-1.68443 118.465 2.44202 122.078 6.64349 125.034C7.39376 125.609 8.14401 126.101 8.9693 126.594C8.21904 131.192 7.39375 135.79 6.56846 140.306C4.3927 152.294 2.06689 164.2 -0.333953 175.777C-1.08422 171.015 -2.65977 166.252 -4.91055 161.654C-7.6115 156.317 -11.2878 151.227 -15.6393 146.957C-19.9908 142.687 -24.9426 139.239 -30.1194 136.94C-35.3712 134.559 -40.8481 133.327 -46.0249 133.409H-47.0753L-46.7002 134.476C-44.9746 139.649 -42.4987 144.74 -39.2726 149.666C-36.1965 154.347 -32.5952 158.698 -28.5438 162.722C-25.4678 165.678 -22.3166 168.387 -18.9405 170.768C-17.8151 171.589 -16.6897 172.328 -15.5643 172.985C-10.7626 175.941 -5.96092 178.076 -1.08422 179.39C-1.9095 183.167 -2.65977 186.861 -3.48505 190.556C-6.93626 206.567 -10.5375 221.511 -13.6136 234.402C-10.6876 224.303 -7.6115 212.808 -4.53542 200.491C-1.9095 197.946 0.716418 195.483 3.41736 193.02C4.16763 192.363 4.84286 191.706 5.59312 191.049C7.31872 193.102 9.26941 194.908 11.5952 196.55C13.0957 197.618 14.7463 198.603 16.4719 199.342C20.6734 201.313 25.4751 202.544 30.2768 202.708C35.0784 202.955 39.9552 202.216 44.3067 200.574C48.7332 198.931 52.7096 196.386 55.7857 193.266L56.536 192.445L55.5606 191.87C51.9594 189.817 47.9079 188.257 43.5564 187.108C39.505 186.04 35.2285 185.384 30.877 185.219C26.5254 185.055 22.249 185.301 18.0475 185.958C14.5963 186.533 11.2951 187.436 8.21904 188.586C13.4709 183.988 18.7227 179.636 23.8995 175.613C24.0496 175.448 24.2747 175.366 24.4247 175.202C30.2768 174.956 36.3539 173.888 42.506 171.836C48.5081 169.865 54.3602 167.073 60.0622 163.625C65.7642 160.176 71.016 156.153 75.6676 151.637C80.6194 146.875 84.8209 141.62 88.047 136.201L88.6472 135.215L87.5968 134.969C81.5947 133.327 74.9174 133.163 68.2401 134.394C61.6377 135.626 54.9604 138.171 48.9583 141.866C42.8812 145.561 37.3292 150.405 32.9777 155.907C28.4761 161.49 25.175 167.812 23.2243 174.217L22.9992 174.956C16.1718 179.964 9.11936 185.712 2.44202 191.788C-0.0338475 194.005 -1.83448 195.729 -3.93521 197.782C-3.335 195.483 -2.80982 193.102 -2.20961 190.721C0.866467 177.665 3.79249 163.953 6.49343 149.995C12.2705 148.435 18.1225 145.972 23.9746 142.605C29.4515 139.485 34.7783 135.626 39.8051 131.192C44.8319 126.758 49.4085 121.914 53.3849 116.741C57.6613 111.158 61.1126 105.41 63.7385 99.5805L64.1886 98.5131L63.1383 98.3488C56.9861 97.5277 50.2338 98.3488 43.7065 100.73C37.2542 103.029 30.952 106.806 25.4001 111.65C19.9231 116.495 15.1965 122.407 11.7453 128.811C10.92 130.371 10.0947 132.013 9.41946 133.655C9.7946 131.521 10.1697 129.386 10.5449 127.251L10.6949 126.101C10.7699 125.691 10.845 125.28 10.845 124.87C12.5706 114.278 14.1461 103.85 15.4966 93.6687C20.4483 88.8243 24.7998 82.5019 28.176 75.3585C31.7023 67.8046 34.1031 59.2653 35.2285 50.4797C36.2789 41.7763 36.0538 32.7444 34.4782 24.4515C32.9027 15.9943 29.9016 8.19402 25.8502 1.70748L25.25 0.722168L24.6498 1.62536C20.5984 7.78348 17.1472 14.9269 14.4462 22.8093C11.8953 30.2811 10.0947 38.2456 9.11935 46.4564C8.06898 54.6673 7.91894 62.8781 8.51915 70.7605C9.19439 79.1355 10.7699 87.0179 13.1708 94.1613L13.5459 95.2287L13.921 94.9003C13.0207 100.73 12.1204 106.724 11.1451 112.718C10.92 109.926 10.4698 107.052 9.86962 104.261C8.29406 97.0351 5.36804 89.8096 1.46668 83.323C-2.43469 76.8365 -7.38642 71.0889 -12.8633 66.6551C-18.4153 62.1391 -24.5674 58.9369 -30.6446 57.4589L-31.845 57.8695ZM15.7967 91.4517C15.8717 90.9591 15.9468 90.3843 16.0218 89.8917C18.1225 73.5522 19.6981 58.1979 20.7484 44.8964C19.0978 58.1158 17.1472 73.3879 14.7463 89.6453C14.5963 90.7948 14.4462 91.8623 14.2211 93.0118L14.1461 93.0939C11.9704 86.361 10.5449 79.0534 9.94465 71.2531C9.34444 63.4528 9.49449 55.4062 10.5449 47.2775C11.5202 39.1488 13.3208 31.3485 15.7967 23.9588C18.2726 16.5691 21.4237 9.91829 25.175 4.08861C28.7762 10.1646 31.4772 17.3901 32.9777 25.1904C34.4782 33.3191 34.7783 42.1047 33.728 50.644C32.6776 59.1832 30.2768 67.5583 26.8256 74.948C23.8245 81.2703 20.0732 86.9358 15.7967 91.4517ZM7.16868 190.885C10.5449 189.489 14.2211 188.421 18.1225 187.765C22.1739 187.108 26.3754 186.861 30.6519 187.026C34.9284 187.19 39.0548 187.847 43.1063 188.914C46.9326 189.899 50.5339 191.295 53.76 193.02C50.984 195.647 47.4578 197.782 43.6314 199.178C39.43 200.738 34.7783 201.395 30.1267 201.23C25.4751 200.984 20.8985 199.917 16.8471 197.946C13.0207 196.222 9.71957 193.759 7.16868 190.885ZM26.6005 173.642C32.3025 169.29 37.8544 165.349 42.7311 161.983C37.3292 165.185 31.1771 169.126 24.9499 173.642C26.8256 167.894 29.9767 162.229 34.0281 157.138C38.3046 151.801 43.7065 147.039 49.6335 143.426C55.5606 139.813 62.0879 137.268 68.4651 136.119C74.5423 134.969 80.6194 135.133 86.1713 136.447C83.0953 141.456 79.1939 146.136 74.6173 150.57C70.0407 155.003 64.8639 158.945 59.3119 162.393C53.76 165.76 47.9079 168.469 42.0559 170.44C36.729 172.164 31.5522 173.232 26.6005 173.642ZM-1.75945 177.583C-6.186 176.27 -10.6126 174.299 -14.9641 171.589C-19.4657 168.798 -23.7421 165.431 -27.7185 161.572C-31.6949 157.631 -35.2212 153.361 -38.2222 148.763C-41.1482 144.329 -43.4741 139.649 -45.1246 135.051C-40.473 135.133 -35.5963 136.365 -30.8696 138.5C-25.8429 140.799 -21.0412 144.165 -16.8397 148.271C-12.6383 152.376 -9.037 157.302 -6.4861 162.475C-4.01024 167.32 -2.35966 172.575 -1.75945 177.583ZM23.0742 141.373C17.6724 144.494 12.2705 146.793 6.9436 148.271C7.69386 142.112 9.71957 135.79 12.9457 129.878C16.2469 123.638 20.8985 117.891 26.2253 113.128C31.6272 108.448 37.7794 104.753 44.0066 102.536C49.9336 100.402 56.0858 99.5805 61.7128 100.155C59.2369 105.492 55.9357 110.829 52.0344 115.92C48.133 121.011 43.6314 125.773 38.6797 130.125C33.728 134.559 28.4761 138.335 23.0742 141.373ZM-30.0444 60.0043C-24.4924 61.5643 -18.9405 64.5202 -13.8387 68.6257C-8.51182 72.8953 -3.71014 78.5607 0.116203 84.8831C3.94254 91.2054 6.79355 98.2667 8.29407 105.328C9.56952 111.076 10.0197 116.823 9.56951 122.324C9.41946 123.228 9.26941 124.049 9.11935 124.952C4.31767 121.832 -0.258924 117.891 -4.61045 113.21C-9.037 108.448 -13.0884 103.029 -16.6897 97.1172C-20.2909 91.2054 -23.292 84.9652 -25.5428 78.6429C-27.7936 72.3205 -29.2941 66.0803 -30.0444 60.0043Z" fill="#DDA15E"/>
</svg>
